<svg xmlns="http://www.w3.org/2000/svg" width="1531" height="685" viewBox="480 35 610 625">
<g>
<path d="M 805.50 651.99 C775.95,654.70 740.67,651.73 710.00,643.98 C610.04,618.69 529.28,543.21 497.13,445.00 C475.45,378.81 477.44,306.02 502.70,240.50 C508.39,225.75 521.22,200.40 530.15,186.29 C564.20,132.43 615.99,89.42 674.34,66.54 C745.39,38.69 829.38,40.63 899.96,71.75 C988.37,110.72 1054.27,194.03 1073.41,291.00 C1077.83,313.38 1079.29,328.08 1079.32,350.50 C1079.35,372.26 1078.35,384.36 1074.91,404.00 C1064.30,464.58 1035.51,520.18 992.28,563.58 C940.98,615.08 876.80,645.47 805.50,651.99 ZM 758.00 643.97 C771.16,645.22 803.08,644.44 817.50,642.52 C866.13,636.05 913.73,616.53 952.83,587.02 C1019.12,537.01 1059.97,465.74 1069.49,383.51 C1071.45,366.64 1071.42,336.21 1069.44,319.00 C1066.17,290.54 1057.35,257.38 1046.33,232.04 C1030.30,195.18 1011.21,167.09 983.06,138.93 C937.29,93.12 883.62,66.43 819.00,57.33 C801.25,54.83 758.32,54.83 741.50,57.33 C679.54,66.53 625.46,93.22 581.17,136.44 C555.87,161.14 538.25,185.45 522.53,217.36 C507.76,247.35 499.01,274.65 493.83,307.00 C491.76,319.88 491.51,324.79 491.55,351.00 C491.59,376.47 491.91,382.47 493.84,394.89 C498.03,421.72 507.09,452.01 518.02,475.66 C533.35,508.85 558.49,542.94 585.96,567.78 C634.39,611.59 693.72,637.86 758.00,643.97 ZM 699.29 417.32 C701.31,421.00 702.62,424.00 702.20,424.00 C701.78,424.00 699.11,421.64 696.26,418.75 C686.67,409.00 683.09,396.02 686.42,383.00 C688.57,374.54 692.31,368.51 702.21,357.49 C712.46,346.08 715.58,339.57 721.93,316.27 C726.47,299.66 730.61,278.27 729.50,277.17 C729.26,276.92 726.46,278.25 723.29,280.11 C715.00,284.99 707.06,293.31 702.67,301.74 C700.60,305.72 698.05,309.44 697.02,309.99 C691.41,312.99 685.93,308.96 688.03,303.38 C691.04,295.40 701.05,278.99 706.50,273.11 C717.77,260.96 730.76,254.05 750.90,249.48 C770.72,244.98 790.00,232.95 801.63,217.83 C805.97,212.18 806.83,210.04 808.44,200.75 C809.24,196.15 811.79,195.69 812.65,200.00 C812.98,201.65 813.55,203.00 813.92,203.00 C814.28,203.00 816.57,200.98 819.00,198.50 C823.44,193.98 826.00,192.83 826.00,195.37 C826.00,196.12 825.10,197.87 824.00,199.27 C820.93,203.17 821.62,203.54 825.53,200.10 C831.05,195.26 834.05,196.12 829.93,201.37 C828.79,202.81 828.31,204.00 828.87,204.00 C829.43,204.00 830.16,203.55 830.50,203.00 C831.52,201.35 833.00,201.87 833.00,203.88 C833.00,204.91 831.99,206.46 830.75,207.33 L 828.50 208.90 L 830.75 208.95 C831.99,208.98 833.00,209.42 833.00,209.93 C833.00,210.89 824.09,216.57 818.00,219.49 C815.62,220.64 812.75,223.76 809.03,229.27 C801.90,239.81 794.86,247.33 783.63,256.39 C778.61,260.43 773.76,264.59 772.85,265.62 C771.12,267.60 762.83,298.50 763.78,299.45 C764.09,299.75 769.10,300.00 774.92,300.00 C786.63,300.00 790.76,301.32 794.35,306.21 C796.18,308.71 796.23,309.37 795.07,314.60 C794.37,317.71 790.01,327.85 785.38,337.12 C775.90,356.11 774.76,357.17 768.05,353.25 C763.65,350.68 763.66,350.06 768.27,334.50 L 771.82 322.50 L 769.20 322.16 C767.76,321.98 762.15,322.37 756.74,323.03 L 746.91 324.24 L 744.20 329.11 C742.72,331.80 739.07,338.51 736.09,344.04 C730.35,354.71 725.16,360.66 708.82,375.25 C697.08,385.74 694.58,390.72 695.19,402.34 C695.57,409.58 696.09,411.50 699.29,417.32 ZM 722.20 245.90 C721.84,246.99 717.57,247.28 715.36,246.37 C714.73,246.12 714.38,245.14 714.59,244.20 C714.80,243.27 715.17,239.80 715.42,236.50 C715.68,233.20 716.19,228.59 716.57,226.25 L 717.26 222.00 L 712.88 221.99 L 708.50 221.98 L 723.07 207.49 L 737.64 193.00 L 773.45 193.00 L 760.22 206.50 L 763.61 213.48 C766.42,219.26 767.00,221.60 767.00,227.08 C767.00,235.21 764.58,239.44 758.03,242.75 C752.36,245.61 748.78,245.58 742.34,242.58 C736.77,239.98 733.42,235.51 730.39,226.64 C728.83,222.06 728.75,222.00 724.41,222.00 C720.09,222.00 720.00,222.07 720.05,225.25 C720.08,227.04 720.66,232.17 721.34,236.65 C722.01,241.14 722.40,245.30 722.20,245.90 ZM 759.00 436.79 L 757.50 441.50 L 750.36 441.79 C742.08,442.13 740.61,441.22 739.65,435.19 C739.07,431.62 738.56,431.06 733.99,429.09 L 728.97 426.93 L 724.62 429.48 L 720.27 432.03 L 714.72 427.47 C711.67,424.95 708.91,422.20 708.58,421.36 C708.26,420.51 709.15,417.72 710.58,415.16 L 713.16 410.50 L 711.05 405.78 C709.34,401.96 708.08,400.69 704.47,399.09 C702.01,398.00 700.00,396.85 700.00,396.52 C700.00,396.20 701.12,393.72 702.50,391.00 C705.29,385.50 709.83,379.97 714.01,376.99 L 716.78 375.02 L 715.66 379.26 C714.05,385.35 714.57,393.77 717.05,401.94 C719.00,408.36 719.82,409.58 725.83,415.01 C735.19,423.45 737.61,424.44 749.00,424.47 C757.92,424.50 758.88,424.29 764.72,421.13 C768.93,418.84 773.23,415.22 778.05,409.88 C781.96,405.55 785.96,402.00 786.93,402.00 C789.30,402.00 792.39,405.53 791.46,407.19 C791.06,407.91 794.05,405.35 798.11,401.50 L 805.50 394.50 L 797.96 402.50 C797.46,403.03 796.98,403.54 796.52,404.03 C789.16,411.82 787.29,413.81 787.34,415.74 C787.36,416.52 787.70,417.29 788.11,418.43 C789.39,421.97 789.35,422.07 784.99,426.51 C782.57,428.98 779.94,431.00 779.16,431.00 C778.38,431.00 776.26,430.09 774.46,428.97 C771.30,427.02 771.01,427.01 766.84,428.62 C761.18,430.81 760.77,431.24 759.00,436.79 ZM 849.77 509.45 C844.76,511.54 834.86,511.32 827.37,508.95 C819.37,506.41 818.54,505.36 820.60,500.39 C821.48,498.25 822.34,496.36 822.51,496.18 C822.67,496.00 824.66,496.80 826.92,497.96 C835.21,502.19 847.12,502.45 848.66,498.44 C849.98,494.99 848.07,492.09 843.74,490.99 C823.47,485.84 820.00,483.47 820.00,474.83 C820.01,463.94 826.61,459.00 841.17,459.00 C849.72,459.00 855.33,460.18 857.84,462.50 C858.94,463.53 858.81,464.45 857.06,467.88 L 854.95 472.02 L 851.72 470.33 C847.65,468.20 836.03,467.90 833.65,469.87 C831.66,471.53 831.49,475.33 833.35,476.87 C834.09,477.49 838.45,478.93 843.04,480.07 C853.48,482.67 856.58,484.26 859.04,488.30 C863.69,495.93 859.56,505.36 849.77,509.45 ZM 729.50 509.14 C722.36,512.38 712.22,511.14 705.22,506.16 C698.92,501.67 696.03,489.64 699.35,481.70 C702.51,474.15 712.02,469.26 721.41,470.36 C731.31,471.53 738.00,479.03 738.00,488.96 L 738.00 494.00 L 708.76 494.00 L 710.21 496.25 C713.75,501.72 721.85,503.11 727.72,499.27 C730.03,497.75 730.28,497.81 733.24,500.78 C736.00,503.54 736.18,504.07 734.92,505.60 C734.14,506.54 731.70,508.14 729.50,509.14 ZM 772.00 510.00 C756.87,514.27 743.00,504.77 743.00,490.14 C743.00,477.46 753.23,468.81 766.41,470.36 C776.31,471.53 783.00,479.03 783.00,488.96 L 783.00 494.00 L 768.46 494.00 C754.11,494.00 753.94,494.03 755.03,496.05 C756.49,498.79 761.88,501.99 765.04,502.00 C766.43,502.00 769.35,501.10 771.51,499.99 L 775.45 497.99 L 781.50 504.12 L 778.50 506.57 C776.85,507.91 773.92,509.46 772.00,510.00 ZM 611.63 508.50 C607.83,510.39 605.13,510.98 600.55,510.91 C591.10,510.78 583.51,507.63 578.26,501.64 C571.73,494.21 570.51,481.35 575.46,472.24 C580.62,462.77 587.71,458.99 600.22,459.02 C609.35,459.05 614.78,460.86 618.80,465.24 L 621.11 467.75 L 617.00 471.00 L 612.90 474.25 L 610.42 471.92 C607.15,468.85 596.87,467.98 592.24,470.38 C585.07,474.08 582.26,483.27 585.82,491.32 C590.06,500.90 602.19,503.92 610.02,497.33 L 612.99 494.83 L 617.05 498.04 L 621.11 501.25 L 618.88 503.62 C617.66,504.92 614.40,507.12 611.63,508.50 ZM 646.77 509.00 C636.94,514.99 622.37,506.93 624.54,496.70 C626.00,489.86 631.27,487.00 642.47,487.00 C649.24,487.00 650.00,486.81 650.00,485.07 C650.00,482.49 645.39,479.00 641.99,479.00 C640.48,479.00 637.34,479.67 635.00,480.50 L 634.55 480.66 C631.81,481.63 630.58,482.06 629.74,481.66 C629.01,481.32 628.58,480.33 627.71,478.51 C626.08,475.11 626.10,474.98 628.28,473.55 C631.67,471.33 640.74,469.69 646.12,470.33 C652.59,471.09 656.36,473.23 659.15,477.73 C661.33,481.23 661.50,482.53 661.50,496.00 L 661.50 510.50 L 656.67 510.81 C652.50,511.07 651.77,510.84 651.30,509.06 C651.03,508.01 650.90,507.40 650.54,507.22 C650.07,506.98 649.21,507.51 647.12,508.79 ZM 879.19 523.38 C872.98,525.12 869.24,524.80 864.22,522.12 C862.10,520.99 862.09,520.87 863.75,517.40 C865.40,513.93 865.56,513.86 869.81,514.49 C873.20,515.00 874.60,514.76 876.09,513.42 C877.14,512.47 878.00,511.20 878.00,510.60 C878.00,509.99 874.40,501.06 870.00,490.74 C865.60,480.42 862.00,471.76 862.00,471.49 C862.00,471.22 864.62,471.00 867.82,471.00 L 873.65 471.00 L 878.42 483.00 C881.04,489.60 883.50,495.00 883.88,495.00 C884.26,495.00 886.81,489.60 889.54,483.00 L 894.50 471.00 L 900.12 471.00 L 905.73 471.00 L 900.55 483.25 C897.70,489.99 893.41,500.19 891.00,505.93 C886.68,516.24 882.47,522.46 879.19,523.38 ZM 921.17 498.02 L 920.84 511.00 L 916.09 511.00 C913.47,511.00 911.03,510.70 910.67,510.33 C910.30,509.97 910.00,500.97 910.00,490.33 L 910.00 471.00 L 915.50 471.00 C920.36,471.00 921.00,471.24 921.00,473.03 C921.00,475.02 921.06,475.01 924.06,472.80 C928.29,469.67 938.54,469.54 942.67,472.57 C948.08,476.53 949.00,479.96 949.00,496.30 L 949.00 511.10 L 943.75 510.80 L 938.50 510.50 L 938.00 497.16 C937.52,484.45 937.38,483.72 935.02,481.81 C931.99,479.36 926.65,479.91 923.56,482.99 C921.73,484.82 921.46,486.51 921.17,498.02 ZM 987.02 508.75 C976.32,514.17 962.60,509.47 958.02,498.82 C953.73,488.86 957.29,477.45 966.07,472.96 C974.92,468.45 985.76,469.56 991.80,475.60 C995.61,479.41 995.28,480.82 990.01,482.99 C987.48,484.04 986.71,483.93 984.14,482.10 C980.65,479.61 974.41,479.32 971.30,481.50 C966.56,484.82 966.01,493.79 970.30,497.81 C975.05,502.28 979.91,502.29 984.64,497.86 L 986.79 495.85 L 990.96 497.98 L 995.12 500.10 L 993.29 503.30 C992.27,505.08 989.49,507.50 987.02,508.75 ZM 753.42 405.90 C748.20,407.35 748.10,407.34 742.97,404.75 C736.80,401.64 734.00,397.12 734.00,390.30 C734.00,384.08 735.80,379.97 739.73,377.23 C742.78,375.11 747.33,373.66 746.44,375.09 C746.13,375.59 745.28,376.00 744.55,376.00 C743.82,376.00 742.22,376.81 740.99,377.81 C738.86,379.53 738.84,379.70 740.51,381.36 C741.47,382.33 742.87,382.86 743.63,382.56 C747.69,380.91 748.17,381.00 745.25,382.88 C742.58,384.60 742.00,385.61 742.00,388.53 C742.00,392.85 745.68,397.00 749.50,397.00 C752.57,397.00 757.00,392.92 757.00,390.10 C757.00,389.01 759.14,386.09 761.75,383.62 C765.87,379.72 766.59,379.37 767.17,380.94 C767.95,383.04 772.42,383.41 774.00,381.50 C775.08,380.20 774.30,376.69 773.10,377.44 C771.94,378.16 769.70,376.29 770.39,375.18 C770.74,374.61 772.93,372.66 775.26,370.84 C777.59,369.03 778.92,368.28 778.20,369.18 C777.07,370.61 777.42,371.04 780.95,372.60 C783.18,373.58 785.00,374.65 785.00,374.97 C785.00,375.29 781.40,379.13 777.00,383.50 C772.60,387.87 769.00,391.96 769.00,392.57 C769.00,394.85 757.37,404.80 753.42,405.90 ZM 839.92 428.53 L 838.34 433.50 L 830.42 433.76 C826.06,433.90 822.02,433.67 821.42,433.26 C820.83,432.84 819.93,430.49 819.42,428.03 C818.65,424.29 817.85,423.19 814.50,421.25 C810.32,418.84 807.84,418.81 802.24,421.11 C799.12,422.39 798.84,422.30 795.77,419.23 L 792.55 416.01 L 804.06 404.38 L 808.78 408.80 C816.09,415.64 820.79,417.40 831.74,417.37 C836.82,417.36 840.78,417.55 840.54,417.80 C840.29,418.04 840.74,418.88 841.52,419.67 C842.59,420.74 843.45,420.83 844.91,420.05 C848.40,418.18 848.39,418.94 844.90,421.28 C842.45,422.92 841.06,424.95 839.92,428.53 ZM 801.07 502.64 L 801.00 509.78 L 797.75 510.14 C795.96,510.34 793.49,510.36 792.25,510.18 C790.00,509.86 790.00,509.82 790.00,490.43 L 790.00 471.00 L 795.50 471.00 C800.30,471.00 801.00,471.25 801.00,472.97 C801.00,474.90 801.05,474.90 804.25,473.06 C806.04,472.04 808.96,470.89 810.75,470.52 L 814.00 469.84 L 814.00 481.00 L 810.61 481.00 C803.40,481.00 801.24,485.90 801.07,502.64 ZM 682.00 498.28 L 681.50 510.50 L 676.96 510.80 C674.47,510.96 672.10,510.77 671.71,510.38 C671.32,509.99 671.00,500.97 671.00,490.33 L 671.00 471.00 L 676.62 471.00 C681.74,471.00 682.19,471.18 681.71,473.00 C681.06,475.48 681.40,475.49 684.79,473.05 C686.28,471.98 689.21,470.80 691.31,470.43 L 695.11 469.76 L 694.81 475.12 L 694.50 480.47 L 690.67 481.09 C683.64,482.23 682.57,484.35 682.00,498.28 ZM 861.00 369.17 C861.00,370.23 859.91,372.18 858.57,373.52 L 856.14 375.95 L 854.45 370.84 C852.56,365.17 847.72,359.23 842.15,355.77 C839.03,353.83 837.18,353.51 829.50,353.56 C823.06,353.60 819.51,354.11 817.00,355.36 C813.03,357.33 815.24,355.39 819.91,352.80 C821.87,351.72 822.77,350.58 822.42,349.64 C821.73,347.85 823.65,347.18 831.37,346.52 C836.90,346.05 837.37,346.19 840.11,349.12 C841.70,350.82 842.99,352.73 842.98,353.36 C842.98,353.99 842.53,353.83 842.00,353.00 C841.42,352.10 841.02,351.98 841.02,352.69 C840.99,354.33 842.72,355.26 843.49,354.02 C843.84,353.46 845.86,353.00 847.99,353.00 C850.95,353.00 852.33,353.60 853.87,355.56 L 855.88 358.12 L 853.88 360.12 C851.29,362.71 851.91,364.41 855.58,364.84 C859.22,365.26 861.00,366.68 861.00,369.17 ZM 683.79 372.50 C682.63,374.70 680.96,379.28 680.09,382.68 C678.74,387.93 678.28,388.67 677.00,387.66 C672.42,384.00 671.78,377.26 675.50,371.79 C676.88,369.76 678.00,366.76 678.00,365.11 C678.00,361.29 678.96,360.76 683.86,361.86 C686.52,362.46 688.20,362.40 688.92,361.68 C690.74,359.86 690.11,362.32 687.94,365.50 C686.82,367.15 684.95,370.30 683.79,372.50 ZM 668.50 388.99 C668.85,390.10 668.89,391.00 668.60,391.00 C666.99,391.00 664.73,378.65 664.77,370.03 L 664.81 360.50 L 653.65 349.02 C647.52,342.71 643.96,338.86 645.75,340.46 C647.54,342.06 649.00,342.81 649.00,342.13 C649.00,341.43 649.52,341.20 650.17,341.61 C650.99,342.11 651.12,341.75 650.61,340.41 C650.21,339.35 651.90,340.47 654.44,342.96 C658.89,347.31 660.02,348.75 658.01,347.50 C657.46,347.17 656.31,347.29 655.44,347.77 C654.16,348.49 655.07,349.77 660.33,354.69 C664.31,358.42 667.60,362.56 668.89,365.49 C671.42,371.20 671.66,379.38 669.43,383.84 C668.57,385.57 668.15,387.89 668.50,388.99 ZM 709.00 485.45 C709.00,486.74 710.60,487.00 718.50,487.00 C723.72,487.00 728.00,486.75 728.00,486.43 C728.00,485.22 725.59,481.44 724.09,480.28 C723.21,479.61 720.57,479.05 718.20,479.03 C714.95,479.01 713.31,479.60 711.45,481.45 C710.10,482.80 709.00,484.60 709.00,485.45 ZM 754.00 486.08 C754.00,486.59 758.28,487.00 763.50,487.00 C774.11,487.00 775.30,486.04 770.35,481.45 C765.10,476.58 754.00,479.72 754.00,486.08 ZM 682.57 405.96 C683.86,409.52 684.77,412.56 684.61,412.72 C684.45,412.89 682.04,410.62 679.27,407.69 C674.06,402.18 668.87,393.63 671.30,394.56 C672.03,394.84 673.67,394.15 674.96,393.03 C678.24,390.19 678.73,390.43 679.53,395.25 C679.92,397.59 681.29,402.41 682.57,405.96 ZM 637.75 501.92 C642.38,504.62 650.00,501.20 650.00,496.43 C650.00,494.14 649.67,494.00 644.20,494.00 C641.01,494.00 637.86,494.54 637.20,495.20 C635.43,496.97 635.74,500.75 637.75,501.92 ZM 644.39 333.32 C643.57,333.01 642.67,333.71 642.17,335.06 C640.75,338.91 640.00,334.92 640.00,323.45 C640.00,315.10 640.27,313.17 641.36,313.58 C642.11,313.87 644.25,312.87 646.11,311.35 C649.29,308.76 649.36,308.75 647.25,311.11 C646.01,312.50 645.00,314.81 645.00,316.25 C645.00,317.99 644.33,319.08 643.00,319.50 C641.36,320.02 641.00,321.01 641.00,325.07 C641.00,329.64 641.53,330.49 644.14,330.15 C644.50,330.11 645.01,330.92 645.28,331.96 C645.62,333.27 645.35,333.69 644.39,333.32 ZM 635.41 308.63 C635.98,310.12 635.71,310.38 634.67,309.33 C634.30,308.97 634.00,306.97 634.00,304.91 C634.00,298.10 641.97,294.55 647.14,299.06 L 649.50 301.12 L 646.81 299.49 C645.34,298.59 642.86,298.00 641.31,298.18 C639.04,298.44 638.49,299.00 638.46,301.12 C638.43,302.55 637.62,304.53 636.65,305.49 C635.68,306.46 635.12,307.87 635.41,308.63 ZM 916.00 232.61 C916.00,233.70 912.92,232.75 909.99,230.75 C904.74,227.18 902.72,223.70 902.19,217.33 C901.75,211.99 901.84,211.69 903.36,213.22 C905.15,215.01 905.57,218.64 904.04,219.17 C903.52,219.35 903.94,221.40 904.98,223.71 C906.44,226.96 907.92,228.42 911.44,230.07 C913.95,231.25 916.00,232.40 916.00,232.61 ZM 790.00 232.21 C790.00,233.28 790.22,233.24 793.83,231.44 C797.44,229.63 797.96,228.96 798.63,225.23 C799.09,222.62 798.92,222.69 794.56,226.96 C792.05,229.41 790.00,231.77 790.00,232.21 ZM 793.45 398.05 C791.40,400.32 787.76,400.31 788.99,398.04 C789.45,397.19 791.25,395.15 792.98,393.50 L 796.13 390.50 L 795.61 393.37 C795.32,394.95 794.35,397.06 793.45,398.05 ZM 889.15 234.19 C888.70,238.97 888.10,239.31 885.15,236.49 C882.67,234.12 882.74,233.98 887.51,231.44 C889.38,230.44 889.49,230.63 889.15,234.19 ZM 922.23 244.25 C921.67,244.94 921.05,246.22 920.86,247.10 C920.54,248.51 920.27,248.48 918.58,246.85 C917.52,245.83 915.72,244.96 914.58,244.90 C912.77,244.81 912.82,244.70 915.00,244.00 C916.38,243.56 918.79,243.15 920.37,243.10 C922.55,243.02 923.00,243.30 922.23,244.25 ZM 765.46 393.07 C764.32,394.92 765.68,393.94 768.56,390.85 C770.41,388.86 770.87,387.92 769.80,388.29 C768.55,388.74 768.26,388.48 768.70,387.33 C769.20,386.03 768.96,385.95 767.27,386.86 C764.88,388.14 763.68,390.68 765.06,391.54 C765.59,391.87 765.77,392.56 765.46,393.07 ZM 789.93 359.46 C789.34,359.09 787.68,359.85 786.24,361.15 C784.65,362.57 785.17,361.57 787.56,358.59 C790.48,354.95 791.59,354.12 791.83,355.40 C792.31,357.86 791.20,360.24 789.93,359.46 ZM 860.00 278.91 C860.00,279.37 859.33,280.32 858.50,281.00 C857.28,282.01 857.00,281.96 857.00,280.73 C857.00,279.90 857.67,278.95 858.50,278.64 C859.33,278.32 860.00,278.44 860.00,278.91 Z" fill="rgb(26,53,89)"/>
<path d="M 809.91 635.48 C795.76,637.06 769.27,637.27 755.00,635.92 C735.85,634.10 713.51,629.39 694.50,623.17 C599.38,592.00 526.59,511.94 504.92,414.66 C490.52,350.00 499.05,279.73 528.39,221.22 C571.45,135.36 648.04,79.04 741.00,64.88 C760.55,61.90 798.39,61.62 816.50,64.33 C879.12,73.67 931.20,99.04 974.88,141.47 C1023.92,189.10 1054.96,254.00 1062.09,323.79 C1063.63,338.84 1062.73,379.09 1060.54,393.00 C1053.79,435.93 1038.71,475.07 1015.47,510.00 C988.04,551.24 949.31,585.39 905.00,607.40 C873.55,623.03 844.43,631.63 809.91,635.48 ZM 757.00 629.32 C764.82,630.13 798.12,629.90 807.00,628.98 C841.00,625.45 869.29,617.30 900.50,602.02 C928.93,588.10 955.25,568.91 977.50,545.88 C998.81,523.83 1015.23,500.61 1028.00,474.50 C1037.49,455.09 1042.96,440.35 1048.02,420.50 C1059.34,376.14 1059.50,327.67 1048.46,283.74 C1041.24,255.04 1027.36,222.11 1012.52,198.50 C986.59,157.25 946.85,120.78 904.33,99.20 C874.30,83.97 849.91,76.43 812.50,70.84 C797.60,68.62 758.60,69.16 741.60,71.83 C711.38,76.58 684.89,85.10 658.05,98.70 C608.93,123.60 568.32,162.95 540.95,212.15 C521.88,246.43 510.11,283.79 506.02,323.00 C504.71,335.57 504.73,365.20 506.06,378.14 C511.87,434.81 531.84,483.62 567.37,528.00 C575.82,538.54 597.64,560.06 609.55,569.59 C652.09,603.61 701.36,623.57 757.00,629.32 ZM 853.25 238.11 C847.85,243.18 845.25,243.98 841.10,241.85 C838.98,240.76 836.62,240.33 834.80,240.69 L 831.89 241.27 L 834.06 237.12 C836.15,233.10 836.23,230.80 834.50,225.33 C833.91,223.49 838.30,218.54 864.05,192.04 L 894.28 160.91 L 887.47 154.58 C881.69,149.21 880.94,148.16 882.58,147.65 C887.14,146.25 932.52,136.00 934.18,136.00 C935.40,136.00 936.00,136.74 936.00,138.25 C936.00,141.20 927.21,190.12 926.57,190.77 C926.29,191.04 922.89,188.44 919.00,185.00 L 911.92 178.73 L 893.33 197.91 C883.10,208.46 873.09,217.93 871.09,218.95 C868.90,220.07 866.27,220.62 864.48,220.33 C862.13,219.95 861.82,220.08 863.00,220.95 C864.19,221.83 863.95,221.93 861.88,221.46 C858.70,220.72 850.71,222.72 851.53,224.05 C851.85,224.57 851.42,225.00 850.56,225.00 C848.17,225.00 848.65,226.06 853.00,230.50 L 857.01 234.59 ZM 851.32 188.88 C850.11,189.50 848.99,189.96 848.82,189.92 C848.64,189.87 846.03,189.28 843.00,188.59 C832.82,186.30 830.42,184.74 827.23,178.31 C825.64,175.10 824.01,171.13 823.62,169.48 C823.23,167.84 822.67,165.60 822.39,164.50 C821.95,162.83 822.06,162.74 823.02,164.00 C823.93,165.20 824.04,164.95 823.56,162.73 C823.04,160.37 823.67,159.23 827.73,155.18 C837.34,145.57 849.18,145.82 858.22,155.82 C863.78,161.98 865.14,171.73 861.44,179.00 C859.96,181.90 854.48,187.26 851.32,188.88 ZM 841.20 179.27 L 842.38 183.21 L 844.65 178.08 C846.48,173.92 847.70,172.59 851.04,171.09 L 855.17 169.24 L 850.84 166.87 C847.87,165.25 845.81,163.13 844.32,160.19 L 842.15 155.88 L 840.12 160.45 C838.45,164.24 837.28,165.38 833.30,167.10 L 828.50 169.17 L 832.32 170.49 C837.47,172.27 839.79,174.57 841.20,179.27 ZM 870.22 144.11 C869.38,146.25 868.43,148.00 868.10,147.99 C867.77,147.98 866.74,146.17 865.81,143.97 C864.56,140.98 863.15,139.53 860.31,138.33 L 856.50 136.70 L 859.36 135.91 C863.24,134.83 865.76,132.37 866.52,128.90 C867.37,125.03 868.18,125.26 870.13,129.90 C871.35,132.81 872.67,134.11 875.38,135.09 C877.37,135.81 879.00,136.67 879.00,137.00 C879.00,137.33 877.37,138.19 875.38,138.91 C872.61,139.91 871.39,141.14 870.22,144.11 ZM 782.85 291.58 C783.92,293.92 783.83,294.00 779.92,294.00 C777.48,294.00 776.13,293.60 776.50,293.00 C776.84,292.45 776.63,292.00 776.03,292.00 C774.15,292.00 773.05,287.41 774.06,283.75 C775.16,279.75 779.22,277.02 781.73,278.60 C783.77,279.89 784.12,282.36 782.80,286.15 C782.06,288.28 782.07,289.86 782.85,291.58 ZM 819.46 251.96 C818.11,250.84 816.81,251.70 810.19,258.08 C805.66,262.45 807.02,260.79 813.50,254.03 C824.32,242.77 825.74,241.26 827.33,241.05 C827.60,241.02 827.88,241.02 828.20,241.02 C829.69,241.00 829.58,241.62 827.36,245.90 C825.97,248.59 823.42,252.08 821.70,253.65 C819.98,255.22 819.13,255.77 819.80,254.88 C820.79,253.58 820.72,253.01 819.46,251.96 ZM 799.25 184.61 C796.98,186.33 794.97,186.29 792.56,184.47 C789.89,182.45 791.42,178.27 795.70,175.88 C798.52,174.31 798.83,174.29 798.28,175.71 C797.83,176.88 798.03,177.10 798.98,176.51 C799.84,175.98 800.07,176.08 799.64,176.78 C799.27,177.37 799.42,178.14 799.98,178.49 C801.60,179.49 801.16,183.16 799.25,184.61 Z" fill="rgb(44,185,216)"/>
<path d="M 861.00 369.17 C861.00,366.68 859.22,365.26 855.58,364.84 C851.91,364.41 851.29,362.71 853.88,360.12 L 855.88 358.12 L 853.87 355.56 C852.33,353.60 850.95,353.00 847.99,353.00 C845.86,353.00 843.84,353.46 843.49,354.02 C842.72,355.26 840.99,354.33 841.02,352.69 C841.02,351.98 841.42,352.10 842.00,353.00 C842.53,353.83 842.98,353.99 842.98,353.36 C842.99,352.73 841.70,350.82 840.11,349.12 C837.37,346.19 836.90,346.05 831.37,346.52 C823.65,347.18 821.73,347.85 822.42,349.64 C822.77,350.58 821.87,351.72 819.91,352.80 C815.24,355.39 813.03,357.33 817.00,355.36 C818.85,354.44 821.28,353.92 825.03,353.69 C819.26,354.93 813.10,358.19 809.31,362.16 C805.64,366.00 802.05,373.32 802.02,377.05 C802.01,378.64 800.67,380.89 798.50,383.00 C796.58,384.87 795.00,387.31 795.00,388.43 C795.00,389.94 798.05,387.46 806.75,378.87 C813.21,372.50 819.61,366.54 820.97,365.64 C824.53,363.28 833.62,363.47 837.76,365.99 C842.67,368.99 844.99,373.52 845.00,380.10 C845.00,387.24 842.25,391.63 835.74,394.86 C829.05,398.18 823.33,397.27 817.58,391.97 L 813.38 388.09 L 800.08 401.42 L 788.29 413.24 C789.47,411.50 791.92,408.90 796.52,404.03 C796.98,403.54 797.46,403.03 797.96,402.50 L 805.50 394.50 L 798.11 401.50 C794.05,405.35 791.06,407.91 791.46,407.19 C792.39,405.53 789.30,402.00 786.93,402.00 C785.96,402.00 781.96,405.55 778.05,409.88 C773.23,415.22 768.93,418.84 764.72,421.13 C758.88,424.29 757.92,424.50 749.00,424.47 C737.61,424.44 735.19,423.45 725.83,415.01 C719.82,409.58 719.00,408.36 717.05,401.94 C714.57,393.77 714.05,385.35 715.66,379.26 L 716.78 375.02 L 714.32 376.77 L 714.45 376.66 C729.54,363.32 735.26,356.86 740.50,347.23 L 745.50 338.05 L 751.21 338.02 C757.39,338.00 759.00,339.29 759.00,344.28 C759.00,345.61 759.80,347.42 760.78,348.30 C762.44,349.80 762.66,349.77 763.82,347.91 C764.26,347.21 765.25,344.49 766.39,340.95 C763.77,350.31 764.36,351.09 768.05,353.25 C774.76,357.17 775.90,356.11 785.38,337.12 C787.36,333.15 789.29,329.03 790.91,325.37 C789.66,328.22 788.25,331.29 786.81,334.24 L 779.62 348.97 L 781.81 351.30 C783.02,352.58 784.00,354.06 784.00,354.59 C784.00,355.63 768.86,371.00 767.83,371.00 C767.48,371.00 764.91,369.46 762.11,367.57 C745.92,356.68 725.44,367.60 723.31,388.26 C722.84,392.86 723.18,394.72 725.43,399.63 C728.81,407.03 732.17,410.62 738.50,413.62 C748.76,418.47 762.00,415.67 769.03,407.16 C770.69,405.15 772.95,400.49 774.05,396.82 C775.27,392.73 777.42,388.49 779.58,385.90 C781.53,383.57 783.79,380.28 784.61,378.58 C785.51,376.73 780.40,381.35 771.80,390.17 C770.73,391.27 769.73,392.30 768.79,393.25 C768.93,392.98 769.00,392.75 769.00,392.57 C769.00,391.96 772.60,387.87 777.00,383.50 C781.40,379.13 785.00,375.29 785.00,374.97 C785.00,374.65 783.18,373.58 780.95,372.60 C777.42,371.04 777.07,370.61 778.20,369.18 C778.92,368.28 777.59,369.03 775.26,370.84 C772.93,372.66 770.74,374.61 770.39,375.18 C769.70,376.29 771.94,378.16 773.10,377.44 C774.30,376.69 775.08,380.20 774.00,381.50 C772.42,383.41 767.95,383.04 767.17,380.94 C766.59,379.37 765.87,379.72 761.75,383.62 C759.14,386.09 757.00,389.01 757.00,390.10 C757.00,391.33 756.16,392.79 754.96,394.06 C755.61,392.97 756.00,391.61 756.00,390.02 C756.00,387.03 755.40,385.67 753.37,384.07 C751.92,382.93 749.87,382.00 748.82,382.00 C746.18,382.00 742.34,386.10 742.02,389.11 C742.01,388.92 742.00,388.72 742.00,388.53 C742.00,385.61 742.58,384.60 745.25,382.88 C748.17,381.00 747.69,380.91 743.63,382.56 C742.87,382.86 741.47,382.33 740.51,381.36 C738.84,379.70 738.86,379.53 740.99,377.81 C742.22,376.81 743.82,376.00 744.55,376.00 C745.28,376.00 746.13,375.59 746.44,375.09 C747.33,373.66 742.78,375.11 739.73,377.23 C736.94,379.18 735.23,381.81 734.46,385.40 C734.71,384.01 735.06,382.70 735.53,381.59 C739.38,372.36 752.60,370.45 760.79,377.95 L 764.08 380.96 L 776.12 369.26 C782.74,362.83 788.61,356.73 789.15,355.72 C789.87,354.38 789.71,353.20 788.57,351.47 C786.16,347.79 786.58,346.69 792.48,341.11 L 797.95 335.93 L 801.94 337.97 C806.73,340.41 808.74,340.49 813.88,338.43 C817.25,337.08 817.95,336.25 818.90,332.46 C820.25,327.14 822.11,326.00 829.50,326.00 C836.90,326.00 838.75,327.13 840.11,332.50 C841.14,336.61 841.61,337.09 846.30,338.84 L 851.38 340.73 L 861.49 336.05 L 867.25 341.74 C870.41,344.87 873.00,347.91 873.00,348.49 C873.00,349.06 871.85,351.23 870.43,353.31 C867.87,357.08 867.87,357.09 869.59,361.79 C871.74,367.63 872.49,368.39 877.61,369.83 C881.68,370.98 881.73,371.05 882.29,376.53 C883.18,385.10 882.25,388.92 879.12,389.60 C872.46,391.06 871.73,391.59 869.85,396.37 L 867.97 401.16 L 870.73 406.07 L 873.50 410.98 L 867.30 417.18 L 861.09 423.39 L 855.96 420.98 L 850.82 418.58 L 846.16 421.04 C844.34,422.00 843.17,422.74 842.30,423.66 C843.02,422.74 843.86,421.97 844.90,421.28 C848.39,418.94 848.40,418.18 844.91,420.05 C843.45,420.83 842.59,420.74 841.52,419.67 C840.74,418.88 840.29,418.04 840.54,417.80 C840.78,417.55 836.82,417.36 831.74,417.37 C820.79,417.40 816.09,415.64 808.78,408.80 L 804.06 404.38 L 792.55 416.01 L 795.77 419.23 C798.84,422.30 799.12,422.39 802.24,421.11 C803.46,420.61 804.53,420.22 805.51,419.94 C804.80,420.19 804.04,420.52 803.21,420.93 L 798.67 423.14 L 795.10 419.56 L 791.52 415.99 L 800.26 407.25 C807.93,399.58 809.22,398.67 810.75,399.77 C816.10,403.62 818.90,405.14 822.50,406.12 C831.83,408.68 844.36,404.34 850.09,396.56 C855.91,388.67 857.28,377.39 853.51,368.50 C853.49,368.46 853.47,368.41 853.45,368.37 C853.84,369.19 854.17,370.02 854.45,370.84 L 856.14 375.95 L 858.57 373.52 C859.91,372.18 861.00,370.23 861.00,369.17 ZM 668.50 388.99 C668.15,387.89 668.57,385.57 669.43,383.84 C671.66,379.38 671.42,371.20 668.89,365.49 C667.60,362.56 664.31,358.42 660.33,354.69 C655.07,349.77 654.16,348.49 655.44,347.77 C656.31,347.29 657.46,347.17 658.01,347.50 C660.02,348.75 658.89,347.31 654.44,342.96 C651.90,340.47 650.21,339.35 650.61,340.41 C651.12,341.75 650.99,342.11 650.17,341.61 C649.52,341.20 649.00,341.43 649.00,342.13 C649.00,342.81 647.54,342.06 645.75,340.46 C643.96,338.86 647.52,342.71 653.65,349.02 L 664.81 360.50 L 664.77 370.03 C664.75,374.29 665.29,379.47 666.04,383.61 C665.32,379.78 664.71,375.09 664.42,370.52 L 663.78 360.50 L 652.63 349.00 C647.64,343.85 643.02,338.80 641.10,336.44 C641.40,336.64 641.76,336.18 642.17,335.06 C642.67,333.71 643.57,333.01 644.39,333.32 C645.18,333.62 645.51,333.40 645.40,332.58 L 653.17 340.82 C657.66,345.60 662.37,350.60 663.63,351.93 L 665.91 354.37 L 667.96 349.60 C669.08,346.98 670.00,344.49 670.00,344.08 C670.00,343.66 666.85,339.86 663.00,335.64 L 656.00 327.96 L 656.00 290.15 L 653.00 287.15 C649.65,283.81 649.19,280.47 651.46,276.07 C653.15,272.82 654.78,272.00 659.63,272.00 C667.59,272.00 670.88,281.28 665.00,287.15 L 662.00 290.15 L 662.00 327.13 L 667.70 332.56 C670.84,335.55 673.67,338.00 674.00,338.00 C674.33,338.00 676.34,336.21 678.48,334.02 L 682.37 330.04 L 675.68 323.12 L 669.00 316.19 L 669.00 296.01 L 676.00 288.26 L 676.00 277.17 C676.00,266.69 675.87,265.96 673.50,263.59 C671.01,261.10 670.19,256.27 671.62,252.54 C672.38,250.57 677.13,248.00 680.03,248.00 C683.04,248.00 688.00,253.28 688.00,256.47 C688.00,259.75 685.58,264.56 683.54,265.35 C682.27,265.83 682.00,268.07 682.00,277.97 L 682.00 289.99 L 678.50 293.87 C675.08,297.65 675.00,297.95 675.00,306.15 L 675.00 314.56 L 686.81 326.25 L 690.15 323.73 C696.26,319.14 715.56,310.23 716.77,311.44 C717.51,312.18 710.08,335.92 707.53,340.94 C706.25,343.47 701.64,349.48 697.29,354.30 C692.42,359.70 688.76,364.25 686.08,368.47 C686.76,367.32 687.43,366.25 687.94,365.50 C690.11,362.32 690.74,359.86 688.92,361.68 C688.20,362.40 686.52,362.46 683.86,361.86 C678.96,360.76 678.00,361.29 678.00,365.11 C678.00,366.76 676.88,369.76 675.50,371.79 C671.78,377.26 672.42,384.00 677.00,387.66 C678.28,388.67 678.74,387.93 680.09,382.68 C680.28,381.94 680.50,381.15 680.75,380.34 C679.95,383.56 679.62,386.86 679.64,390.50 C679.65,393.67 679.83,396.14 680.27,398.53 C679.93,397.23 679.67,396.08 679.53,395.25 C678.73,390.43 678.24,390.19 674.96,393.03 C673.67,394.15 672.03,394.84 671.30,394.56 C669.38,393.83 672.21,399.00 676.05,403.92 C672.87,399.93 670.14,395.65 669.76,393.79 C669.62,393.08 669.14,392.24 668.70,391.91 C668.17,391.52 667.58,390.08 667.01,387.96 C667.54,389.83 668.10,391.00 668.60,391.00 C668.89,391.00 668.85,390.10 668.50,388.99 ZM 830.04 307.75 L 830.00 321.00 L 816.00 321.00 L 816.01 305.75 C816.01,305.31 816.01,304.89 816.01,304.47 C816.01,297.39 816.01,292.94 817.25,288.86 C819.42,281.72 825.41,275.73 841.89,258.75 C853.50,246.79 863.00,236.69 863.00,236.30 C863.00,235.90 861.34,233.89 859.32,231.81 C857.29,229.73 855.83,227.85 856.07,227.62 C856.59,227.12 892.39,218.20 892.76,218.48 C893.11,218.76 884.94,254.39 884.40,254.94 C884.16,255.18 881.98,253.43 879.55,251.05 C875.01,246.59 872.59,246.21 871.31,249.73 C870.95,250.70 862.09,260.17 851.61,270.76 C841.13,281.36 832.00,291.03 831.31,292.26 C830.50,293.72 830.06,299.12 830.04,307.75 ZM 922.23 244.25 C922.57,243.83 922.67,243.54 922.49,243.36 C922.69,243.53 922.70,243.78 922.59,244.12 C922.35,244.88 920.71,252.25 918.95,260.50 C917.19,268.75 915.57,275.70 915.35,275.94 C915.14,276.18 913.04,274.49 910.69,272.18 L 906.41 267.99 L 893.05 280.49 C881.94,290.88 879.15,293.00 876.59,293.02 C872.22,293.04 870.45,294.30 872.45,295.96 C873.30,296.67 874.00,297.63 874.00,298.09 C874.00,298.55 869.08,304.07 863.07,310.34 C852.06,321.82 851.69,322.44 850.77,331.00 C850.50,333.46 847.30,334.97 845.71,333.38 C845.32,332.99 845.00,326.94 845.00,319.94 L 845.00 307.21 L 895.99 257.74 L 892.40 253.76 C890.43,251.58 889.19,249.47 889.66,249.08 C890.60,248.28 909.21,244.51 917.38,243.45 C916.49,243.60 915.63,243.80 915.00,244.00 C912.82,244.70 912.77,244.81 914.58,244.90 C915.72,244.96 917.52,245.83 918.58,246.85 C920.27,248.48 920.54,248.51 920.86,247.10 C921.05,246.22 921.67,244.94 922.23,244.25 ZM 819.46 251.96 C820.72,253.01 820.79,253.58 819.80,254.88 C819.22,255.65 819.78,255.34 821.04,254.24 C819.71,255.77 818.23,257.37 816.65,259.00 C812.10,263.67 805.59,270.56 802.19,274.29 L 795.99 281.08 L 796.62 286.42 C797.16,291.02 796.95,292.05 795.12,293.88 C792.89,296.11 788.54,296.64 786.00,295.00 C785.17,294.47 781.24,294.02 777.25,294.02 C773.26,294.01 770.03,293.66 770.06,293.25 C770.10,292.84 771.35,287.77 772.83,282.00 L 775.54 271.50 L 779.19 271.19 C782.46,270.92 784.71,268.98 800.92,252.45 C816.25,236.81 819.00,233.55 819.00,231.00 C819.00,227.15 822.15,224.00 826.00,224.00 C829.85,224.00 833.00,227.15 833.00,231.00 C833.00,234.98 829.86,238.00 825.72,238.00 C822.78,238.00 820.64,239.88 804.72,256.42 C789.58,272.16 787.00,275.29 787.00,277.92 C787.00,281.61 789.09,282.02 791.26,278.75 C793.93,274.71 802.99,264.80 811.47,256.15 C806.78,261.09 806.18,261.95 810.19,258.08 C816.81,251.70 818.11,250.84 819.46,251.96 ZM 886.74 320.55 C883.31,323.83 878.01,328.87 874.98,331.75 L 869.45 336.98 L 861.26 328.79 L 858.38 330.61 C856.80,331.62 861.64,325.92 869.14,317.95 L 882.78 303.45 L 879.90 299.86 L 877.02 296.27 L 892.26 293.32 C900.64,291.69 907.62,290.66 907.78,291.01 C908.12,291.82 901.21,320.12 900.50,320.84 C900.21,321.13 898.40,319.84 896.47,317.97 L 892.97 314.58 ZM 916.00 232.61 C916.00,232.40 913.95,231.25 911.44,230.07 C907.92,228.42 906.44,226.96 904.98,223.71 C903.94,221.40 903.52,219.35 904.04,219.17 C905.57,218.64 905.15,215.01 903.36,213.22 C902.75,212.60 902.37,212.28 902.16,212.47 C903.60,205.22 910.02,200.00 919.48,200.00 C924.58,200.00 925.40,200.33 929.40,204.01 C934.81,209.00 936.71,214.64 935.06,220.79 C933.68,225.90 929.63,230.84 925.33,232.64 C917.61,235.86 907.95,232.38 904.25,225.04 C904.06,224.65 903.87,224.27 903.70,223.88 C904.91,226.55 906.88,228.64 909.99,230.75 C912.92,232.75 916.00,233.70 916.00,232.61 ZM 810.00 282.15 L 810.00 334.00 L 805.00 334.00 L 805.00 278.40 L 817.00 265.79 C826.11,256.22 829.00,252.54 829.00,250.54 C829.00,247.23 833.12,243.00 836.34,243.00 C839.19,243.00 842.58,245.64 843.40,248.50 C843.73,249.65 843.13,251.89 842.00,253.75 C840.42,256.36 839.38,257.00 836.74,257.00 C833.92,257.00 832.19,258.30 824.40,266.25 C819.42,271.34 814.14,277.00 812.67,278.83 ZM 841.00 299.71 L 841.00 322.00 L 838.56 322.00 C837.22,322.00 835.90,321.65 835.63,321.21 C835.36,320.78 835.40,315.04 835.71,308.46 L 836.28 296.50 L 847.14 285.45 C856.15,276.28 858.00,273.88 858.00,271.35 C858.00,267.60 860.71,264.99 864.58,265.02 C868.07,265.03 869.31,265.77 870.87,268.73 C873.30,273.34 869.50,279.00 863.97,279.00 C862.01,279.00 858.91,281.51 851.19,289.36 ZM 798.00 192.24 C797.17,194.85 796.23,196.99 795.91,196.99 C795.58,197.00 794.80,195.29 794.18,193.19 C792.78,188.54 789.69,185.49 784.46,183.63 C781.10,182.43 780.80,182.11 782.50,181.51 C788.77,179.32 790.25,178.50 792.01,176.26 C793.07,174.91 794.23,172.27 794.59,170.40 C794.94,168.53 795.51,167.00 795.86,167.01 C796.21,167.01 797.17,169.15 798.00,171.76 C799.33,175.97 800.08,176.78 804.70,179.00 C807.57,180.38 809.93,181.73 809.95,182.00 C809.97,182.27 807.63,183.62 804.75,185.00 C800.07,187.23 799.34,188.01 798.00,192.24 ZM 635.41 308.63 C635.12,307.87 635.68,306.46 636.65,305.49 C637.62,304.53 638.43,302.55 638.46,301.12 C638.49,299.00 639.04,298.44 641.31,298.18 C642.86,298.00 645.34,298.59 646.81,299.49 L 649.50 301.12 L 647.14 299.06 C643.06,295.50 637.23,296.96 634.96,301.09 C636.20,298.51 638.59,297.00 641.73,297.00 C646.24,297.00 647.89,297.88 649.60,301.19 C651.51,304.90 650.70,308.99 647.45,312.05 C645.21,314.15 645.00,315.10 645.00,323.25 L 645.00 331.15 C644.73,330.53 644.40,330.12 644.14,330.15 C641.53,330.49 641.00,329.64 641.00,325.07 C641.00,321.01 641.36,320.02 643.00,319.50 C644.33,319.08 645.00,317.99 645.00,316.25 C645.00,314.81 646.01,312.50 647.25,311.11 C649.36,308.75 649.29,308.76 646.11,311.35 C644.25,312.87 642.11,313.87 641.36,313.58 C640.27,313.17 640.00,315.10 640.00,323.45 C640.00,330.78 640.31,335.06 640.90,336.18 C640.57,335.77 640.35,335.46 640.24,335.26 C639.51,333.94 639.00,329.29 639.00,323.88 C639.00,315.40 638.82,314.56 636.50,312.41 C634.57,310.62 634.00,309.10 634.00,305.72 C634.00,305.60 634.00,305.48 634.00,305.36 C634.04,307.26 634.33,308.99 634.67,309.33 C635.71,310.38 635.98,310.12 635.41,308.63 ZM 824.22 385.44 C825.44,386.30 827.59,387.00 829.00,387.00 C833.27,387.00 836.00,384.37 836.00,380.27 C836.00,375.71 833.60,373.00 829.57,373.00 C824.64,373.00 822.00,375.44 822.00,380.00 C822.00,382.88 822.57,384.29 824.22,385.44 ZM 916.76 223.12 L 918.50 226.87 L 919.71 224.04 C921.09,220.81 925.49,217.01 927.88,216.98 C928.77,216.97 927.70,215.96 925.50,214.72 C923.30,213.48 920.79,211.06 919.93,209.34 L 918.36 206.21 L 917.27 209.08 C916.68,210.66 914.50,212.95 912.44,214.17 L 908.70 216.38 L 911.85 217.87 C913.75,218.77 915.71,220.86 916.76,223.12 ZM 782.85 291.58 C782.07,289.86 782.06,288.28 782.80,286.15 C784.12,282.36 783.77,279.89 781.73,278.60 C779.22,277.02 775.16,279.75 774.06,283.75 C773.05,287.41 774.15,292.00 776.03,292.00 C776.63,292.00 776.84,292.45 776.50,293.00 C776.13,293.60 777.48,294.00 779.92,294.00 C783.83,294.00 783.92,293.92 782.85,291.58 ZM 848.56 189.86 C842.62,191.39 835.05,189.80 829.57,185.62 C823.78,181.21 820.85,171.89 822.34,164.33 C822.36,164.39 822.37,164.44 822.39,164.50 C822.67,165.60 823.23,167.84 823.62,169.48 C824.01,171.13 825.64,175.10 827.23,178.31 C830.42,184.74 832.82,186.30 843.00,188.59 C845.55,189.17 847.80,189.68 848.56,189.86 ZM 799.25 184.61 C801.16,183.16 801.60,179.49 799.98,178.49 C799.42,178.14 799.27,177.37 799.64,176.78 C800.07,176.08 799.84,175.98 798.98,176.51 C798.03,177.10 797.83,176.88 798.28,175.71 C798.83,174.29 798.52,174.31 795.70,175.88 C791.42,178.27 789.89,182.45 792.56,184.47 C794.97,186.29 796.98,186.33 799.25,184.61 ZM 656.38 282.56 C657.17,284.61 660.75,284.34 661.93,282.14 C663.23,279.71 661.09,276.64 658.45,277.15 C656.43,277.54 655.45,280.11 656.38,282.56 ZM 676.36 258.50 C677.08,260.38 680.38,260.45 681.89,258.63 C683.57,256.60 682.15,254.00 679.36,254.00 C676.78,254.00 675.42,256.04 676.36,258.50 ZM 790.00 232.21 C790.00,231.77 792.05,229.41 794.56,226.96 C798.92,222.69 799.09,222.62 798.63,225.23 C797.96,228.96 797.44,229.63 793.83,231.44 C790.22,233.24 790.00,233.28 790.00,232.21 ZM 793.45 398.05 C794.35,397.06 795.32,394.95 795.61,393.37 L 796.13 390.50 L 792.98 393.50 C791.25,395.15 789.45,397.19 788.99,398.04 C787.76,400.31 791.40,400.32 793.45,398.05 ZM 889.15 234.19 C889.49,230.63 889.38,230.44 887.51,231.44 C882.74,233.98 882.67,234.12 885.15,236.49 C888.10,239.31 888.70,238.97 889.15,234.19 ZM 639.36 306.50 C640.08,308.38 642.39,308.44 643.89,306.63 C645.44,304.76 644.23,302.00 641.86,302.00 C639.71,302.00 638.48,304.21 639.36,306.50 ZM 765.46 393.07 C765.77,392.56 765.59,391.87 765.06,391.54 C763.68,390.68 764.88,388.14 767.27,386.86 C768.96,385.95 769.20,386.03 768.70,387.33 C768.26,388.48 768.55,388.74 769.80,388.29 C770.87,387.92 770.41,388.86 768.56,390.85 C765.68,393.94 764.32,394.92 765.46,393.07 ZM 862.36 272.51 C863.16,274.59 866.37,274.04 866.81,271.74 C867.21,269.67 864.32,268.28 862.80,269.80 C862.21,270.39 862.02,271.60 862.36,272.51 ZM 787.44 289.90 C787.81,290.51 788.99,291.00 790.06,291.00 C792.18,291.00 792.81,287.62 790.90,286.44 C789.48,285.56 786.56,288.48 787.44,289.90 ZM 863.03 221.69 C861.46,222.15 859.82,222.59 858.25,222.97 C853.72,224.07 849.92,225.24 849.15,225.75 C849.05,225.19 849.55,225.00 850.56,225.00 C851.42,225.00 851.85,224.57 851.53,224.05 C850.71,222.72 858.70,220.72 861.88,221.46 C862.36,221.57 862.75,221.65 863.03,221.69 ZM 789.93 359.46 C791.20,360.24 792.31,357.86 791.83,355.40 C791.59,354.12 790.48,354.95 787.56,358.59 C785.17,361.57 784.65,362.57 786.24,361.15 C787.68,359.85 789.34,359.09 789.93,359.46 ZM 774.71 240.34 C781.02,236.73 786.86,232.26 792.64,226.70 C799.15,220.45 802.89,216.36 805.02,212.86 C804.18,214.39 803.11,215.91 801.63,217.83 C794.81,226.70 785.36,234.50 774.71,240.34 ZM 834.41 251.63 C835.23,253.75 837.43,252.81 837.82,250.17 C838.03,248.76 837.61,248.00 836.63,248.00 C834.68,248.00 833.66,249.68 834.41,251.63 ZM 824.00 231.00 C824.00,232.33 824.67,233.00 826.00,233.00 C827.33,233.00 828.00,232.33 828.00,231.00 C828.00,229.67 827.33,229.00 826.00,229.00 C824.67,229.00 824.00,229.67 824.00,231.00 ZM 853.25 238.11 L 854.90 236.57 L 851.79 239.71 C848.92,242.62 846.33,244.98 846.03,244.94 C845.74,244.91 844.25,243.92 842.73,242.73 C842.56,242.61 842.40,242.48 842.23,242.37 C845.76,243.79 848.36,242.70 853.25,238.11 ZM 849.80 362.62 C845.88,358.09 840.19,354.77 834.30,353.61 C838.19,353.77 839.82,354.32 842.15,355.77 C844.99,357.53 847.64,359.94 849.80,362.62 ZM 860.00 278.91 C860.00,278.44 859.33,278.32 858.50,278.64 C857.67,278.95 857.00,279.90 857.00,280.73 C857.00,281.96 857.28,282.01 858.50,281.00 C859.33,280.32 860.00,279.37 860.00,278.91 ZM 723.61 259.42 C731.30,254.72 736.68,252.65 745.62,250.77 C737.09,253.04 729.92,255.83 723.61,259.42 ZM 868.52 219.95 C867.15,220.44 865.46,220.98 863.65,221.51 C863.55,221.38 863.33,221.20 863.00,220.95 C861.82,220.08 862.13,219.95 864.48,220.33 C865.60,220.51 867.05,220.36 868.52,219.95 ZM 745.23 405.87 C741.14,404.71 737.52,401.90 735.48,397.96 C734.97,396.97 734.60,395.68 734.36,394.22 C735.29,398.92 738.07,402.28 742.97,404.75 C743.85,405.20 744.59,405.57 745.23,405.87 ZM 824.59 158.59 C826.82,154.96 830.19,152.16 834.03,150.43 C831.86,151.58 829.75,153.16 827.73,155.18 C826.28,156.62 825.27,157.70 824.59,158.59 ZM 822.55 163.42 C822.79,162.45 823.11,161.52 823.50,160.64 C823.34,161.30 823.39,161.95 823.56,162.73 C824.04,164.95 823.93,165.20 823.02,164.00 C822.83,163.75 822.67,163.56 822.55,163.42 ZM 858.22 155.82 C855.41,152.71 852.33,150.54 849.12,149.32 C850.12,149.64 851.10,150.03 852.04,150.52 C855.27,152.19 857.92,154.81 859.86,157.91 C859.36,157.18 858.81,156.48 858.22,155.82 ZM 901.96 213.73 C901.97,214.51 902.06,215.68 902.19,217.33 C902.39,219.74 902.81,221.74 903.53,223.48 C902.09,220.07 901.61,216.75 901.96,213.73 ZM 838.34 433.50 L 831.44 433.80 C826.99,434.00 824.31,434.03 822.64,433.55 C824.28,433.77 827.27,433.86 830.42,433.76 L 838.34 433.50 ZM 702.99 277.46 C700.39,280.99 697.44,285.55 694.79,290.06 L 694.81 290.03 C697.33,285.40 700.03,281.23 702.99,277.46 ZM 753.42 405.90 C754.75,405.53 756.93,404.17 759.25,402.44 C756.61,404.67 754.99,405.51 753.18,405.98 C753.03,406.02 752.87,406.06 752.71,406.10 C752.94,406.03 753.18,405.97 753.42,405.90 ZM 838.54 240.88 C837.76,240.74 836.92,240.70 836.02,240.73 L 834.22 240.81 L 834.80 240.69 C835.91,240.47 837.21,240.54 838.54,240.88 ZM 820.89 432.54 C820.19,431.76 819.88,430.58 819.61,428.85 C819.97,430.34 820.46,431.72 820.89,432.54 ZM 856.93 234.51 L 853.01 230.51 L 857.02 234.42 ZM 749.86 396.98 C749.74,396.99 749.62,397.00 749.50,397.00 C747.70,397.00 745.92,396.08 744.56,394.64 C746.21,396.26 748.10,396.99 749.86,396.98 ZM 808.82 199.20 C809.33,197.42 809.82,197.00 810.60,197.00 C810.67,197.00 810.73,197.01 810.79,197.02 C810.08,196.95 809.33,197.69 808.82,199.20 ZM 827.30 246.02 C827.32,245.98 827.34,245.94 827.36,245.90 C828.12,244.44 828.63,243.40 828.92,242.67 C828.69,243.52 828.14,244.66 827.30,246.02 ZM 795.07 314.60 C795.98,310.52 796.14,309.22 795.30,307.66 C796.15,309.22 796.01,310.50 795.17,314.23 C795.11,314.50 795.02,314.83 794.91,315.21 C794.97,314.98 795.03,314.78 795.07,314.60 ZM 807.78 204.36 C808.01,202.95 808.22,201.81 808.42,200.88 C808.19,202.17 807.98,203.32 807.78,204.36 ZM 687.83 307.42 C687.58,306.80 687.49,306.16 687.59,305.35 C687.54,306.09 687.62,306.78 687.83,307.42 ZM 700.89 394.32 C700.38,395.42 700.05,396.23 700.00,396.48 C700.00,396.47 700.00,396.46 700.00,396.45 C700.00,396.27 700.34,395.47 700.89,394.32 ZM 684.40 411.56 C684.60,412.23 684.69,412.64 684.64,412.69 C684.64,412.70 684.63,412.70 684.62,412.70 C684.65,412.58 684.57,412.18 684.40,411.56 ZM 828.35 241.02 C828.31,241.02 828.25,241.01 828.20,241.02 L 828.01 241.02 C828.06,241.01 828.09,241.00 828.13,241.00 C828.21,241.00 828.28,241.01 828.35,241.02 ZM 787.63 417.10 L 788.09 418.38 C787.92,417.90 787.76,417.48 787.63,417.10 ZM 838.58 432.75 L 838.34 433.50 L 838.34 433.50 Z" fill="rgb(82,107,127)"/>
<path d="M 0.00 342.50 L 0.00 0.00 L 765.50 0.00 L 1531.00 0.00 L 1531.00 342.50 L 1531.00 685.00 L 765.50 685.00 L 0.00 685.00 L 0.00 342.50 ZM 805.50 651.99 C876.80,645.47 940.98,615.08 992.28,563.58 C1035.51,520.18 1064.30,464.58 1074.91,404.00 C1078.35,384.36 1079.35,372.26 1079.32,350.50 C1079.29,328.08 1077.83,313.38 1073.41,291.00 C1054.27,194.03 988.37,110.72 899.96,71.75 C829.38,40.63 745.39,38.69 674.34,66.54 C615.99,89.42 564.20,132.43 530.15,186.29 C521.22,200.40 508.39,225.75 502.70,240.50 C477.44,306.02 475.45,378.81 497.13,445.00 C529.28,543.21 610.04,618.69 710.00,643.98 C740.67,651.73 775.95,654.70 805.50,651.99 ZM 758.00 643.97 C693.72,637.86 634.39,611.59 585.96,567.78 C558.49,542.94 533.35,508.85 518.02,475.66 C507.09,452.01 498.03,421.72 493.84,394.89 C491.91,382.47 491.59,376.47 491.55,351.00 C491.51,324.79 491.76,319.88 493.83,307.00 C499.01,274.65 507.76,247.35 522.53,217.36 C538.25,185.45 555.87,161.14 581.17,136.44 C625.46,93.22 679.54,66.53 741.50,57.33 C758.32,54.83 801.25,54.83 819.00,57.33 C883.62,66.43 937.29,93.12 983.06,138.93 C1011.21,167.09 1030.30,195.18 1046.33,232.04 C1057.35,257.38 1066.17,290.54 1069.44,319.00 C1071.42,336.21 1071.45,366.64 1069.49,383.51 C1059.97,465.74 1019.12,537.01 952.83,587.02 C913.73,616.53 866.13,636.05 817.50,642.52 C803.08,644.44 771.16,645.22 758.00,643.97 ZM 809.91 635.48 C844.43,631.63 873.55,623.03 905.00,607.40 C949.31,585.39 988.04,551.24 1015.47,510.00 C1038.71,475.07 1053.79,435.93 1060.54,393.00 C1062.73,379.09 1063.63,338.84 1062.09,323.79 C1054.96,254.00 1023.92,189.10 974.88,141.47 C931.20,99.04 879.12,73.67 816.50,64.33 C798.39,61.62 760.55,61.90 741.00,64.88 C648.04,79.04 571.45,135.36 528.39,221.22 C499.05,279.73 490.52,350.00 504.92,414.66 C526.59,511.94 599.38,592.00 694.50,623.17 C713.51,629.39 735.85,634.10 755.00,635.92 C769.27,637.27 795.76,637.06 809.91,635.48 ZM 757.00 629.32 C701.36,623.57 652.09,603.61 609.55,569.59 C597.64,560.06 575.82,538.54 567.37,528.00 C531.84,483.62 511.87,434.81 506.06,378.14 C504.73,365.20 504.71,335.57 506.02,323.00 C510.11,283.79 521.88,246.43 540.95,212.15 C568.32,162.95 608.93,123.60 658.05,98.70 C684.89,85.10 711.38,76.58 741.60,71.83 C758.60,69.16 797.60,68.62 812.50,70.84 C849.91,76.43 874.30,83.97 904.33,99.20 C946.85,120.78 986.59,157.25 1012.52,198.50 C1027.36,222.11 1041.24,255.04 1048.46,283.74 C1059.50,327.67 1059.34,376.14 1048.02,420.50 C1042.96,440.35 1037.49,455.09 1028.00,474.50 C1015.23,500.61 998.81,523.83 977.50,545.88 C955.25,568.91 928.93,588.10 900.50,602.02 C869.29,617.30 841.00,625.45 807.00,628.98 C798.12,629.90 764.82,630.13 757.00,629.32 ZM 879.19 523.38 C882.47,522.46 886.68,516.24 891.00,505.93 C893.41,500.19 897.70,489.99 900.55,483.25 L 905.73 471.00 L 900.12 471.00 L 894.50 471.00 L 889.54 483.00 C886.81,489.60 884.26,495.00 883.88,495.00 C883.50,495.00 881.04,489.60 878.42,483.00 L 873.65 471.00 L 867.82 471.00 C864.62,471.00 862.00,471.22 862.00,471.49 C862.00,471.76 865.60,480.42 870.00,490.74 C874.40,501.06 878.00,509.99 878.00,510.60 C878.00,511.20 877.14,512.47 876.09,513.42 C874.60,514.76 873.20,515.00 869.81,514.49 C865.56,513.86 865.40,513.93 863.75,517.40 C862.09,520.87 862.10,520.99 864.22,522.12 C869.24,524.80 872.98,525.12 879.19,523.38 ZM 611.63 508.50 C614.40,507.12 617.66,504.92 618.88,503.62 L 621.11 501.25 L 617.05 498.04 L 612.99 494.83 L 610.02 497.33 C602.19,503.92 590.06,500.90 585.82,491.32 C582.26,483.27 585.07,474.08 592.24,470.38 C596.87,467.98 607.15,468.85 610.42,471.92 L 612.90 474.25 L 617.00 471.00 L 621.11 467.75 L 618.80 465.24 C614.78,460.86 609.35,459.05 600.22,459.02 C587.71,458.99 580.62,462.77 575.46,472.24 C570.51,481.35 571.73,494.21 578.26,501.64 C583.51,507.63 591.10,510.78 600.55,510.91 C605.13,510.98 607.83,510.39 611.63,508.50 ZM 646.77 509.00 C650.79,506.55 650.65,506.55 651.30,509.06 C651.77,510.84 652.50,511.07 656.67,510.81 L 661.50 510.50 L 661.50 496.00 C661.50,482.53 661.33,481.23 659.15,477.73 C656.36,473.23 652.59,471.09 646.12,470.33 C640.74,469.69 631.67,471.33 628.28,473.55 C626.10,474.98 626.08,475.11 627.71,478.51 C629.62,482.53 629.41,482.47 635.00,480.50 C637.34,479.67 640.48,479.00 641.99,479.00 C645.39,479.00 650.00,482.49 650.00,485.07 C650.00,486.81 649.24,487.00 642.47,487.00 C631.27,487.00 626.00,489.86 624.54,496.70 C622.37,506.93 636.94,514.99 646.77,509.00 ZM 682.00 498.28 C682.57,484.35 683.64,482.23 690.67,481.09 L 694.50 480.47 L 694.81 475.12 L 695.11 469.76 L 691.31 470.43 C689.21,470.80 686.28,471.98 684.79,473.05 C681.40,475.49 681.06,475.48 681.71,473.00 C682.19,471.18 681.74,471.00 676.62,471.00 L 671.00 471.00 L 671.00 490.33 C671.00,500.97 671.32,509.99 671.71,510.38 C672.10,510.77 674.47,510.96 676.96,510.80 L 681.50 510.50 L 682.00 498.28 ZM 729.50 509.14 C731.70,508.14 734.14,506.54 734.92,505.60 C736.18,504.07 736.00,503.54 733.24,500.78 C730.28,497.81 730.03,497.75 727.72,499.27 C721.85,503.11 713.75,501.72 710.21,496.25 L 708.76 494.00 L 723.38 494.00 L 738.00 494.00 L 738.00 488.96 C738.00,479.03 731.31,471.53 721.41,470.36 C712.02,469.26 702.51,474.15 699.35,481.70 C696.03,489.64 698.92,501.67 705.22,506.16 C712.22,511.14 722.36,512.38 729.50,509.14 ZM 772.00 510.00 C773.92,509.46 776.85,507.91 778.50,506.57 L 781.50 504.12 L 778.47 501.05 L 775.45 497.99 L 771.51 499.99 C769.35,501.10 766.43,502.00 765.04,502.00 C761.88,501.99 756.49,498.79 755.03,496.05 C753.94,494.03 754.11,494.00 768.46,494.00 L 783.00 494.00 L 783.00 488.96 C783.00,479.03 776.31,471.53 766.41,470.36 C753.23,468.81 743.00,477.46 743.00,490.14 C743.00,504.77 756.87,514.27 772.00,510.00 ZM 801.07 502.64 C801.24,485.90 803.40,481.00 810.61,481.00 L 814.00 481.00 L 814.00 475.42 L 814.00 469.84 L 810.75 470.52 C808.96,470.89 806.04,472.04 804.25,473.06 C801.05,474.90 801.00,474.90 801.00,472.97 C801.00,471.25 800.30,471.00 795.50,471.00 L 790.00 471.00 L 790.00 490.43 C790.00,509.82 790.00,509.86 792.25,510.18 C793.49,510.36 795.96,510.34 797.75,510.14 L 801.00 509.78 L 801.07 502.64 ZM 849.77 509.45 C859.56,505.36 863.69,495.93 859.04,488.30 C856.58,484.26 853.48,482.67 843.04,480.07 C838.45,478.93 834.09,477.49 833.35,476.87 C831.49,475.33 831.66,471.53 833.65,469.87 C836.03,467.90 847.65,468.20 851.72,470.33 L 854.95 472.02 L 857.06 467.88 C858.81,464.45 858.94,463.53 857.84,462.50 C855.33,460.18 849.72,459.00 841.17,459.00 C826.61,459.00 820.01,463.94 820.00,474.83 C820.00,483.47 823.47,485.84 843.74,490.99 C848.07,492.09 849.98,494.99 848.66,498.44 C847.12,502.45 835.21,502.19 826.92,497.96 C824.66,496.80 822.67,496.00 822.51,496.18 C822.34,496.36 821.48,498.25 820.60,500.39 C818.54,505.36 819.37,506.41 827.37,508.95 C834.86,511.32 844.76,511.54 849.77,509.45 ZM 921.17 498.02 C921.46,486.51 921.73,484.82 923.56,482.99 C926.65,479.91 931.99,479.36 935.02,481.81 C937.38,483.72 937.52,484.45 938.00,497.16 L 938.50 510.50 L 943.75 510.80 L 949.00 511.10 L 949.00 496.30 C949.00,479.96 948.08,476.53 942.67,472.57 C938.54,469.54 928.29,469.67 924.06,472.80 C921.06,475.01 921.00,475.02 921.00,473.03 C921.00,471.24 920.36,471.00 915.50,471.00 L 910.00 471.00 L 910.00 490.33 C910.00,500.97 910.30,509.97 910.67,510.33 C911.03,510.70 913.47,511.00 916.09,511.00 L 920.84 511.00 L 921.17 498.02 ZM 987.02 508.75 C989.49,507.50 992.27,505.08 993.29,503.30 L 995.12 500.10 L 990.96 497.98 L 986.79 495.85 L 984.64 497.86 C979.91,502.29 975.05,502.28 970.30,497.81 C966.01,493.79 966.56,484.82 971.30,481.50 C974.41,479.32 980.65,479.61 984.14,482.10 C986.71,483.93 987.48,484.04 990.01,482.99 C995.28,480.82 995.61,479.41 991.80,475.60 C985.76,469.56 974.92,468.45 966.07,472.96 C957.29,477.45 953.73,488.86 958.02,498.82 C962.60,509.47 976.32,514.17 987.02,508.75 ZM 759.00 436.79 C760.77,431.24 761.18,430.81 766.84,428.62 C771.01,427.01 771.30,427.02 774.46,428.97 C776.26,430.09 778.38,431.00 779.16,431.00 C779.94,431.00 782.57,428.98 784.99,426.51 C789.37,422.05 789.40,421.98 788.09,418.38 L 786.78 414.75 L 800.08 401.42 L 813.38 388.09 L 817.58 391.97 C823.33,397.27 829.05,398.18 835.74,394.86 C842.25,391.63 845.00,387.24 845.00,380.10 C844.99,373.52 842.67,368.99 837.76,365.99 C833.62,363.47 824.53,363.28 820.97,365.64 C819.61,366.54 813.21,372.50 806.75,378.87 C798.05,387.46 795.00,389.94 795.00,388.43 C795.00,387.31 796.58,384.87 798.50,383.00 C800.67,380.89 802.01,378.64 802.02,377.05 C802.05,373.32 805.64,366.00 809.31,362.16 C813.68,357.58 821.21,353.94 827.66,353.27 C837.93,352.21 849.48,359.02 853.51,368.50 C857.28,377.39 855.91,388.67 850.09,396.56 C844.36,404.34 831.83,408.68 822.50,406.12 C818.90,405.14 816.10,403.62 810.75,399.77 C809.22,398.67 807.93,399.58 800.26,407.25 L 791.52 415.99 L 795.10 419.56 L 798.67 423.14 L 803.21 420.93 C808.16,418.53 810.48,418.71 815.68,421.92 C818.25,423.51 818.99,424.76 819.55,428.45 C820.35,433.84 821.25,434.25 831.44,433.80 L 838.34 433.50 L 839.92 428.50 C841.28,424.18 842.14,423.16 846.16,421.04 L 850.82 418.58 L 855.96 420.98 L 861.09 423.39 L 867.30 417.18 L 873.50 410.98 L 870.73 406.07 L 867.97 401.16 L 869.85 396.37 C871.73,391.59 872.46,391.06 879.12,389.60 C882.25,388.92 883.18,385.10 882.29,376.53 C881.73,371.05 881.68,370.98 877.61,369.83 C872.49,368.39 871.74,367.63 869.59,361.79 C867.87,357.09 867.87,357.08 870.43,353.31 C871.85,351.23 873.00,349.06 873.00,348.49 C873.00,347.91 870.41,344.87 867.25,341.74 L 861.49 336.05 L 856.43 338.39 L 851.38 340.73 L 846.30 338.84 C841.61,337.09 841.14,336.61 840.11,332.50 C838.75,327.13 836.90,326.00 829.50,326.00 C822.11,326.00 820.25,327.14 818.90,332.46 C817.95,336.25 817.25,337.08 813.88,338.43 C808.74,340.49 806.73,340.41 801.94,337.97 L 797.95 335.93 L 792.48 341.11 C786.58,346.69 786.16,347.79 788.57,351.47 C789.71,353.20 789.87,354.38 789.15,355.72 C788.61,356.73 782.74,362.83 776.12,369.26 L 764.08 380.96 L 760.79 377.95 C752.60,370.45 739.38,372.36 735.53,381.59 C733.59,386.23 733.56,394.26 735.48,397.96 C738.80,404.37 746.32,407.78 753.18,405.98 C756.84,405.02 759.69,402.60 771.80,390.17 C780.40,381.35 785.51,376.73 784.61,378.58 C783.79,380.28 781.53,383.57 779.58,385.90 C777.42,388.49 775.27,392.73 774.05,396.82 C772.95,400.49 770.69,405.15 769.03,407.16 C762.00,415.67 748.76,418.47 738.50,413.62 C732.17,410.62 728.81,407.03 725.43,399.63 C723.18,394.72 722.84,392.86 723.31,388.26 C725.44,367.60 745.92,356.68 762.11,367.57 C764.91,369.46 767.48,371.00 767.83,371.00 C768.86,371.00 784.00,355.63 784.00,354.59 C784.00,354.06 783.02,352.58 781.81,351.30 L 779.62 348.97 L 786.81 334.24 C790.76,326.13 794.52,317.13 795.17,314.23 C796.24,309.45 796.17,308.70 794.36,306.23 C790.76,301.32 786.64,300.00 774.92,300.00 C769.10,300.00 764.09,299.75 763.78,299.45 C762.83,298.50 771.12,267.60 772.85,265.62 C773.76,264.59 778.61,260.43 783.63,256.39 C794.86,247.33 801.90,239.81 809.03,229.27 C812.75,223.76 815.62,220.64 818.00,219.49 C824.09,216.57 833.00,210.89 833.00,209.93 C833.00,209.42 831.99,208.98 830.75,208.95 L 828.50 208.90 L 830.75 207.33 C831.99,206.46 833.00,204.91 833.00,203.88 C833.00,201.87 831.52,201.35 830.50,203.00 C830.16,203.55 829.43,204.00 828.87,204.00 C828.31,204.00 828.79,202.81 829.93,201.37 C834.05,196.12 831.05,195.26 825.53,200.10 C821.62,203.54 820.93,203.17 824.00,199.27 C825.10,197.87 826.00,196.12 826.00,195.37 C826.00,192.83 823.44,193.98 819.00,198.50 C816.57,200.98 814.28,203.00 813.92,203.00 C813.55,203.00 812.98,201.65 812.65,200.00 C812.32,198.33 811.41,197.00 810.60,197.00 C809.19,197.00 808.73,198.37 807.43,206.50 C806.54,212.03 803.29,216.47 792.64,226.70 C779.22,239.60 765.49,246.68 746.14,250.66 C735.89,252.78 730.33,255.08 720.99,261.07 C710.08,268.06 701.72,277.31 694.81,290.03 C687.06,304.30 686.58,305.71 688.50,308.63 C690.15,311.17 693.75,311.74 697.02,309.99 C698.05,309.44 700.60,305.72 702.67,301.74 C707.06,293.31 715.00,284.99 723.29,280.11 C726.46,278.25 729.26,276.92 729.50,277.17 C730.61,278.27 726.47,299.66 721.93,316.27 C715.58,339.57 712.46,346.08 702.21,357.49 C692.31,368.51 688.57,374.54 686.42,383.00 C683.09,396.02 686.67,409.00 696.26,418.75 C699.11,421.64 701.78,424.00 702.20,424.00 C702.62,424.00 701.31,421.00 699.29,417.32 C696.09,411.50 695.57,409.58 695.19,402.34 C694.58,390.72 697.08,385.74 708.82,375.25 C725.16,360.66 730.35,354.71 736.09,344.04 C739.07,338.51 742.72,331.80 744.20,329.11 L 746.91 324.24 L 756.74 323.03 C762.15,322.37 767.76,321.98 769.20,322.16 L 771.82 322.50 L 768.45 334.20 C766.59,340.64 764.51,346.81 763.82,347.91 C762.66,349.77 762.44,349.80 760.78,348.30 C759.80,347.42 759.00,345.61 759.00,344.28 C759.00,339.29 757.39,338.00 751.21,338.02 L 745.50 338.05 L 740.50 347.23 C735.26,356.86 729.54,363.32 714.45,376.66 C708.83,381.62 705.43,385.59 703.20,389.78 C701.44,393.08 700.00,396.08 700.00,396.45 C700.00,396.81 702.01,398.00 704.47,399.09 C708.08,400.69 709.34,401.96 711.05,405.78 L 713.16 410.50 L 710.58 415.16 C709.15,417.72 708.26,420.51 708.58,421.36 C708.91,422.20 711.67,424.95 714.72,427.47 L 720.27 432.03 L 724.62 429.48 L 728.97 426.93 L 733.99 429.09 C738.56,431.06 739.07,431.62 739.65,435.19 C740.61,441.22 742.08,442.13 750.36,441.79 L 757.50 441.50 L 759.00 436.79 ZM 682.29 405.46 C680.30,400.15 679.67,396.61 679.64,390.50 C679.57,377.85 683.72,369.33 697.29,354.30 C701.64,349.48 706.25,343.47 707.53,340.94 C710.08,335.92 717.51,312.18 716.77,311.44 C715.56,310.23 696.26,319.14 690.15,323.73 L 686.81 326.25 L 680.90 320.41 L 675.00 314.56 L 675.00 306.15 C675.00,297.95 675.08,297.65 678.50,293.87 L 682.00 289.99 L 682.00 277.97 C682.00,268.07 682.27,265.83 683.54,265.35 C685.58,264.56 688.00,259.75 688.00,256.47 C688.00,253.28 683.04,248.00 680.03,248.00 C677.13,248.00 672.38,250.57 671.62,252.54 C670.19,256.27 671.01,261.10 673.50,263.59 C675.87,265.96 676.00,266.69 676.00,277.17 L 676.00 288.26 L 672.50 292.13 L 669.00 296.01 L 669.00 306.10 L 669.00 316.19 L 675.68 323.12 L 682.37 330.04 L 678.48 334.02 C676.34,336.21 674.33,338.00 674.00,338.00 C673.67,338.00 670.84,335.55 667.70,332.56 L 662.00 327.13 L 662.00 308.64 L 662.00 290.15 L 665.00 287.15 C670.88,281.28 667.59,272.00 659.63,272.00 C654.78,272.00 653.15,272.82 651.46,276.07 C649.19,280.47 649.65,283.81 653.00,287.15 L 656.00 290.15 L 656.00 309.06 L 656.00 327.96 L 663.00 335.64 C666.85,339.86 670.00,343.66 670.00,344.08 C670.00,344.49 669.08,346.98 667.96,349.60 L 665.91 354.37 L 663.63 351.93 C662.37,350.60 657.66,345.60 653.17,340.82 L 645.00 332.15 L 645.00 323.25 C645.00,315.10 645.21,314.15 647.45,312.05 C650.70,308.99 651.51,304.90 649.60,301.19 C647.89,297.88 646.24,297.00 641.73,297.00 C637.01,297.00 634.00,300.40 634.00,305.72 C634.00,309.10 634.57,310.62 636.50,312.41 C638.82,314.56 639.00,315.40 639.00,323.88 C639.00,329.29 639.51,333.94 640.24,335.26 C640.92,336.49 646.50,342.67 652.63,349.00 L 663.78 360.50 L 664.42 370.52 C665.05,380.36 667.13,390.75 668.70,391.91 C669.14,392.24 669.62,393.08 669.76,393.79 C670.29,396.36 675.32,403.60 679.80,408.23 C682.32,410.83 684.50,412.84 684.64,412.69 C684.79,412.55 683.73,409.29 682.29,405.46 ZM 886.74 320.55 L 892.97 314.58 L 896.47 317.97 C898.40,319.84 900.21,321.13 900.50,320.84 C901.21,320.12 908.12,291.82 907.78,291.01 C907.62,290.66 900.64,291.69 892.26,293.32 L 877.02 296.27 L 879.90 299.86 L 882.78 303.45 L 869.14 317.95 C861.64,325.92 856.80,331.62 858.38,330.61 L 861.26 328.79 L 865.36 332.88 L 869.45 336.98 L 874.98 331.75 C878.01,328.87 883.31,323.83 886.74,320.55 ZM 810.00 308.08 L 810.00 282.15 L 812.67 278.83 C814.14,277.00 819.42,271.34 824.40,266.25 C832.19,258.30 833.92,257.00 836.74,257.00 C839.38,257.00 840.42,256.36 842.00,253.75 C843.13,251.89 843.73,249.65 843.40,248.50 C842.58,245.64 839.19,243.00 836.34,243.00 C833.12,243.00 829.00,247.23 829.00,250.54 C829.00,252.54 826.11,256.22 817.00,265.79 L 805.00 278.40 L 805.00 306.20 L 805.00 334.00 L 807.50 334.00 L 810.00 334.00 L 810.00 308.08 ZM 850.77 331.00 C851.69,322.44 852.06,321.82 863.07,310.34 C869.08,304.07 874.00,298.55 874.00,298.09 C874.00,297.63 873.30,296.67 872.45,295.96 C870.45,294.30 872.22,293.04 876.59,293.02 C879.15,293.00 881.94,290.88 893.05,280.49 L 906.41 267.99 L 910.69 272.18 C913.04,274.49 915.14,276.18 915.35,275.94 C915.57,275.70 917.19,268.75 918.95,260.50 C920.71,252.25 922.35,244.88 922.59,244.12 C922.95,243.01 922.01,242.87 917.77,243.40 C909.82,244.39 890.62,248.27 889.66,249.08 C889.19,249.47 890.43,251.58 892.40,253.76 L 895.99 257.74 L 870.50 282.47 L 845.00 307.21 L 845.00 319.94 C845.00,326.94 845.32,332.99 845.71,333.38 C847.30,334.97 850.50,333.46 850.77,331.00 ZM 841.00 310.86 L 841.00 299.71 L 851.19 289.36 C858.91,281.51 862.01,279.00 863.97,279.00 C869.50,279.00 873.30,273.34 870.87,268.73 C869.31,265.77 868.07,265.03 864.58,265.02 C860.71,264.99 858.00,267.60 858.00,271.35 C858.00,273.88 856.15,276.28 847.14,285.45 L 836.28 296.50 L 835.71 308.46 C835.40,315.04 835.36,320.78 835.63,321.21 C835.90,321.65 837.22,322.00 838.56,322.00 L 841.00 322.00 L 841.00 310.86 ZM 830.04 307.75 C830.06,299.12 830.50,293.72 831.31,292.26 C832.00,291.03 841.13,281.36 851.61,270.76 C862.09,260.17 870.95,250.70 871.31,249.73 C872.59,246.21 875.01,246.59 879.55,251.05 C881.98,253.43 884.16,255.18 884.40,254.94 C884.94,254.39 893.11,218.76 892.76,218.48 C892.39,218.20 856.59,227.12 856.07,227.62 C855.83,227.85 857.29,229.73 859.32,231.81 C861.34,233.89 863.00,235.90 863.00,236.30 C863.00,236.69 853.50,246.79 841.89,258.75 C815.46,285.97 816.02,284.95 816.01,305.75 L 816.00 321.00 L 823.00 321.00 L 830.00 321.00 L 830.04 307.75 ZM 795.12 293.88 C796.95,292.05 797.16,291.02 796.62,286.42 L 795.99 281.08 L 802.19 274.29 C805.59,270.56 812.10,263.67 816.65,259.00 C825.85,249.55 831.30,241.00 828.13,241.00 C825.66,241.00 796.44,270.91 791.26,278.75 C789.09,282.02 787.00,281.61 787.00,277.92 C787.00,275.29 789.58,272.16 804.72,256.42 C820.64,239.88 822.78,238.00 825.72,238.00 C829.86,238.00 833.00,234.98 833.00,231.00 C833.00,227.15 829.85,224.00 826.00,224.00 C822.15,224.00 819.00,227.15 819.00,231.00 C819.00,233.55 816.25,236.81 800.92,252.45 C784.71,268.98 782.46,270.92 779.19,271.19 L 775.54 271.50 L 772.83 282.00 C771.35,287.77 770.10,292.84 770.06,293.25 C770.03,293.66 773.26,294.01 777.25,294.02 C781.24,294.02 785.17,294.47 786.00,295.00 C788.54,296.64 792.89,296.11 795.12,293.88 ZM 722.20 245.90 C722.40,245.30 722.01,241.14 721.34,236.65 C720.66,232.17 720.08,227.04 720.05,225.25 C720.00,222.07 720.09,222.00 724.41,222.00 C728.75,222.00 728.83,222.06 730.39,226.64 C733.42,235.51 736.77,239.98 742.34,242.58 C748.78,245.58 752.36,245.61 758.03,242.75 C764.58,239.44 767.00,235.21 767.00,227.08 C767.00,221.60 766.42,219.26 763.61,213.48 L 760.22 206.50 L 766.84 199.75 L 773.45 193.00 L 755.54 193.00 L 737.64 193.00 L 723.07 207.49 L 708.50 221.98 L 712.88 221.99 L 717.26 222.00 L 716.57 226.25 C716.19,228.59 715.68,233.20 715.42,236.50 C715.17,239.80 714.80,243.27 714.59,244.20 C714.38,245.14 714.73,246.12 715.36,246.37 C717.57,247.28 721.84,246.99 722.20,245.90 ZM 851.79 239.71 L 857.02 234.42 L 853.01 230.51 C850.80,228.36 849.00,226.29 849.00,225.91 C849.00,225.53 853.16,224.21 858.25,222.97 C863.34,221.73 869.13,219.90 871.11,218.91 C873.10,217.91 883.10,208.46 893.33,197.91 L 911.92 178.73 L 919.00 185.00 C922.89,188.44 926.29,191.04 926.57,190.77 C927.21,190.12 936.00,141.20 936.00,138.25 C936.00,136.74 935.40,136.00 934.18,136.00 C932.52,136.00 887.14,146.25 882.58,147.65 C880.94,148.16 881.69,149.21 887.47,154.58 L 894.28 160.91 L 864.05 192.04 C838.30,218.54 833.91,223.49 834.50,225.33 C836.22,230.74 836.15,233.11 834.16,236.93 L 832.09 240.89 L 836.02 240.73 C838.71,240.63 840.84,241.26 842.73,242.73 C844.25,243.92 845.74,244.91 846.03,244.94 C846.33,244.98 848.92,242.62 851.79,239.71 ZM 925.33 232.64 C929.63,230.84 933.68,225.90 935.06,220.79 C936.71,214.64 934.81,209.00 929.40,204.01 C925.40,200.33 924.58,200.00 919.48,200.00 C905.08,200.00 897.72,212.10 904.25,225.04 C907.95,232.38 917.61,235.86 925.33,232.64 ZM 798.00 192.24 C799.34,188.01 800.07,187.23 804.75,185.00 C807.63,183.62 809.97,182.27 809.95,182.00 C809.93,181.73 807.57,180.38 804.70,179.00 C800.08,176.78 799.33,175.97 798.00,171.76 C797.17,169.15 796.21,167.01 795.86,167.01 C795.51,167.00 794.94,168.53 794.59,170.40 C794.23,172.27 793.07,174.91 792.01,176.26 C790.25,178.50 788.77,179.32 782.50,181.51 C780.80,182.11 781.10,182.43 784.46,183.63 C789.69,185.49 792.78,188.54 794.18,193.19 C794.80,195.29 795.58,197.00 795.91,196.99 C796.23,196.99 797.17,194.85 798.00,192.24 ZM 851.50 188.76 C854.47,187.27 859.99,181.85 861.44,179.00 C866.36,169.34 861.82,155.58 852.04,150.52 C842.11,145.39 828.50,150.10 823.63,160.37 C819.87,168.30 822.72,180.39 829.57,185.62 C836.01,190.53 845.32,191.86 851.50,188.76 ZM 870.22 144.11 C871.39,141.14 872.61,139.91 875.38,138.91 C877.37,138.19 879.00,137.33 879.00,137.00 C879.00,136.67 877.37,135.81 875.38,135.09 C872.67,134.11 871.35,132.81 870.13,129.90 C868.18,125.26 867.37,125.03 866.52,128.90 C865.76,132.37 863.24,134.83 859.36,135.91 L 856.50 136.70 L 860.31 138.33 C863.15,139.53 864.56,140.98 865.81,143.97 C866.74,146.17 867.77,147.98 868.10,147.99 C868.43,148.00 869.38,146.25 870.22,144.11 ZM 637.75 501.92 C635.74,500.75 635.43,496.97 637.20,495.20 C637.86,494.54 641.01,494.00 644.20,494.00 C649.67,494.00 650.00,494.14 650.00,496.43 C650.00,501.20 642.38,504.62 637.75,501.92 ZM 709.00 485.45 C709.00,484.60 710.10,482.80 711.45,481.45 C713.31,479.60 714.95,479.01 718.20,479.03 C720.57,479.05 723.21,479.61 724.09,480.28 C725.59,481.44 728.00,485.22 728.00,486.43 C728.00,486.75 723.72,487.00 718.50,487.00 C710.60,487.00 709.00,486.74 709.00,485.45 ZM 754.00 486.08 C754.00,479.72 765.10,476.58 770.35,481.45 C775.30,486.04 774.11,487.00 763.50,487.00 C758.28,487.00 754.00,486.59 754.00,486.08 ZM 744.45 394.55 C743.10,393.20 742.00,390.92 742.00,389.50 C742.00,386.47 746.06,382.00 748.82,382.00 C749.87,382.00 751.92,382.93 753.37,384.07 C755.40,385.67 756.00,387.03 756.00,390.02 C756.00,396.68 749.24,399.33 744.45,394.55 ZM 824.22 385.44 C822.57,384.29 822.00,382.88 822.00,380.00 C822.00,375.44 824.64,373.00 829.57,373.00 C833.60,373.00 836.00,375.71 836.00,380.27 C836.00,384.37 833.27,387.00 829.00,387.00 C827.59,387.00 825.44,386.30 824.22,385.44 ZM 639.36 306.50 C638.48,304.21 639.71,302.00 641.86,302.00 C644.23,302.00 645.44,304.76 643.89,306.63 C642.39,308.44 640.08,308.38 639.36,306.50 ZM 656.38 282.56 C655.45,280.11 656.43,277.54 658.45,277.15 C661.09,276.64 663.23,279.71 661.93,282.14 C660.75,284.34 657.17,284.61 656.38,282.56 ZM 676.36 258.50 C675.42,256.04 676.78,254.00 679.36,254.00 C682.15,254.00 683.57,256.60 681.89,258.63 C680.38,260.45 677.08,260.38 676.36,258.50 ZM 834.41 251.63 C833.66,249.68 834.68,248.00 836.63,248.00 C837.61,248.00 838.03,248.76 837.82,250.17 C837.43,252.81 835.23,253.75 834.41,251.63 ZM 862.36 272.51 C862.02,271.60 862.21,270.39 862.80,269.80 C864.32,268.28 867.21,269.67 866.81,271.74 C866.37,274.04 863.16,274.59 862.36,272.51 ZM 787.44 289.90 C786.56,288.48 789.48,285.56 790.90,286.44 C792.81,287.62 792.18,291.00 790.06,291.00 C788.99,291.00 787.81,290.51 787.44,289.90 ZM 824.00 231.00 C824.00,229.67 824.67,229.00 826.00,229.00 C827.33,229.00 828.00,229.67 828.00,231.00 C828.00,232.33 827.33,233.00 826.00,233.00 C824.67,233.00 824.00,232.33 824.00,231.00 ZM 916.76 223.12 C915.71,220.86 913.75,218.77 911.85,217.87 L 908.70 216.38 L 912.44 214.17 C914.50,212.95 916.68,210.66 917.27,209.08 L 918.36 206.21 L 919.93 209.34 C920.79,211.06 923.30,213.48 925.50,214.72 C927.70,215.96 928.77,216.97 927.88,216.98 C925.49,217.01 921.09,220.81 919.71,224.04 L 918.50 226.87 L 916.76 223.12 ZM 841.20 179.27 C839.79,174.57 837.47,172.27 832.32,170.49 L 828.50 169.17 L 833.30 167.10 C837.28,165.38 838.45,164.24 840.12,160.45 L 842.15 155.88 L 844.32 160.19 C845.81,163.13 847.87,165.25 850.84,166.87 L 855.17 169.24 L 851.04 171.09 C847.70,172.59 846.48,173.92 844.65,178.08 L 842.38 183.21 L 841.20 179.27 Z" fill="rgb(253,253,253)"/>
</g>
</svg>